<svg width="108" height="108" viewBox="0 0 108 108" fill="none" xmlns="http://www.w3.org/2000/svg">
<g id="formkit:time">
<path id="Vector" d="M54.0845 100.5C28.3397 100.5 7.39697 79.5568 7.39697 53.812C7.39697 28.0672 28.3397 7.12451 54.0845 7.12451C79.8293 7.12451 100.772 28.0672 100.772 53.812C100.772 79.5568 79.8293 100.5 54.0845 100.5ZM54.0845 13.7942C32.008 13.7942 14.0666 31.7355 14.0666 53.812C14.0666 75.8885 32.008 93.8299 54.0845 93.8299C76.161 93.8299 94.1023 75.8885 94.1023 53.812C94.1023 31.7355 76.161 13.7942 54.0845 13.7942Z" fill="#E8830F"/>
<path id="Vector_2" d="M67.4232 70.486C66.8229 70.486 66.2227 70.3526 65.6891 70.0191L49.015 60.0146C48.5211 59.7179 48.1135 59.297 47.8327 58.7938C47.5519 58.2907 47.4076 57.7228 47.4143 57.1467V30.4681C47.4143 28.6006 48.8816 27.1333 50.7491 27.1333C52.6166 27.1333 54.0839 28.6006 54.0839 30.4681V55.2792L69.1573 64.2832C69.7782 64.6637 70.258 65.2363 70.5242 65.9141C70.7904 66.5919 70.8283 67.338 70.6322 68.0393C70.4361 68.7406 70.0168 69.3589 69.4377 69.8004C68.8586 70.2419 68.1514 70.4826 67.4232 70.486Z" fill="#E8830F"/>
</g>
</svg>
