<svg width="107" height="107" viewBox="0 0 107 107" fill="none" xmlns="http://www.w3.org/2000/svg">
<g id="ion:calendar-outline">
<path id="Vector" d="M86.8869 16.895H20.1905C14.6652 16.895 10.186 21.3742 10.186 26.8995V86.9263C10.186 92.4516 14.6652 96.9307 20.1905 96.9307H86.8869C92.4122 96.9307 96.8914 92.4516 96.8914 86.9263V26.8995C96.8914 21.3742 92.4122 16.895 86.8869 16.895Z" stroke="#E8830F" stroke-width="3.6798" stroke-linejoin="round"/>
<path id="Vector_2" d="M61.8758 53.5782C64.6384 53.5782 66.878 51.3386 66.878 48.576C66.878 45.8133 64.6384 43.5737 61.8758 43.5737C59.1131 43.5737 56.8735 45.8133 56.8735 48.576C56.8735 51.3386 59.1131 53.5782 61.8758 53.5782Z" fill="#E8830F"/>
<path id="Vector_3" d="M78.5501 53.5782C81.3127 53.5782 83.5523 51.3386 83.5523 48.576C83.5523 45.8133 81.3127 43.5737 78.5501 43.5737C75.7874 43.5737 73.5479 45.8133 73.5479 48.576C73.5479 51.3386 75.7874 53.5782 78.5501 53.5782Z" fill="#E8830F"/>
<path id="Vector_4" d="M61.8758 70.252C64.6384 70.252 66.878 68.0124 66.878 65.2498C66.878 62.4871 64.6384 60.2476 61.8758 60.2476C59.1131 60.2476 56.8735 62.4871 56.8735 65.2498C56.8735 68.0124 59.1131 70.252 61.8758 70.252Z" fill="#E8830F"/>
<path id="Vector_5" d="M78.5501 70.252C81.3127 70.252 83.5523 68.0124 83.5523 65.2498C83.5523 62.4871 81.3127 60.2476 78.5501 60.2476C75.7874 60.2476 73.5479 62.4871 73.5479 65.2498C73.5479 68.0124 75.7874 70.252 78.5501 70.252Z" fill="#E8830F"/>
<path id="Vector_6" d="M28.5276 70.252C31.2903 70.252 33.5299 68.0124 33.5299 65.2498C33.5299 62.4871 31.2903 60.2476 28.5276 60.2476C25.765 60.2476 23.5254 62.4871 23.5254 65.2498C23.5254 68.0124 25.765 70.252 28.5276 70.252Z" fill="#E8830F"/>
<path id="Vector_7" d="M45.2019 70.252C47.9646 70.252 50.2042 68.0124 50.2042 65.2498C50.2042 62.4871 47.9646 60.2476 45.2019 60.2476C42.4393 60.2476 40.1997 62.4871 40.1997 65.2498C40.1997 68.0124 42.4393 70.252 45.2019 70.252Z" fill="#E8830F"/>
<path id="Vector_8" d="M28.5276 86.9263C31.2903 86.9263 33.5299 84.6868 33.5299 81.9241C33.5299 79.1615 31.2903 76.9219 28.5276 76.9219C25.765 76.9219 23.5254 79.1615 23.5254 81.9241C23.5254 84.6868 25.765 86.9263 28.5276 86.9263Z" fill="#E8830F"/>
<path id="Vector_9" d="M45.2019 86.9263C47.9646 86.9263 50.2042 84.6868 50.2042 81.9241C50.2042 79.1615 47.9646 76.9219 45.2019 76.9219C42.4393 76.9219 40.1997 79.1615 40.1997 81.9241C40.1997 84.6868 42.4393 86.9263 45.2019 86.9263Z" fill="#E8830F"/>
<path id="Vector_10" d="M61.8758 86.9263C64.6384 86.9263 66.878 84.6868 66.878 81.9241C66.878 79.1615 64.6384 76.9219 61.8758 76.9219C59.1131 76.9219 56.8735 79.1615 56.8735 81.9241C56.8735 84.6868 59.1131 86.9263 61.8758 86.9263Z" fill="#E8830F"/>
<path id="Vector_11" d="M26.8604 10.2256V16.8952M80.2175 10.2256V16.8952" stroke="#E8830F" stroke-width="3.6798" stroke-linecap="round" stroke-linejoin="round"/>
<path id="Vector_12" d="M96.8914 33.5693H10.186" stroke="#E8830F" stroke-width="3.6798" stroke-linejoin="round"/>
</g>
</svg>
