<svg width="111" height="111" viewBox="0 0 111 111" fill="none" xmlns="http://www.w3.org/2000/svg">
<g id="icon-park-outline:tour-bus">
<g id="Group">
<path id="Vector" d="M21.2124 53.3193H89.9299M21.2124 53.3193V78.5158C21.2124 79.7308 21.6951 80.896 22.5542 81.7551C23.4133 82.6143 24.5786 83.0969 25.7936 83.0969H85.3488C86.5638 83.0969 87.729 82.6143 88.5881 81.7551C89.4473 80.896 89.9299 79.7308 89.9299 78.5158V53.3193M21.2124 53.3193V18.9606C21.2124 17.7456 21.6951 16.5803 22.5542 15.7212C23.4133 14.8621 24.5786 14.3794 25.7936 14.3794H85.3488C86.5638 14.3794 87.729 14.8621 88.5881 15.7212C89.4473 16.5803 89.9299 17.7456 89.9299 18.9606V53.3193" stroke="#FF953E" stroke-width="3.77273" stroke-linejoin="round"/>
<path id="Vector_2" d="M34.9562 96.8407C33.1337 96.8407 31.3859 96.1167 30.0972 94.828C28.8085 93.5393 28.0845 91.7914 28.0845 89.9689V83.0972H41.828V89.9689C41.828 91.7914 41.104 93.5393 39.8153 94.828C38.5266 96.1167 36.7787 96.8407 34.9562 96.8407ZM76.1867 96.8407C74.3642 96.8407 72.6164 96.1167 71.3277 94.828C70.039 93.5393 69.315 91.7914 69.315 89.9689V83.0972H83.0585V89.9689C83.0585 91.7914 82.3345 93.5393 81.0458 94.828C79.7571 96.1167 78.0092 96.8407 76.1867 96.8407Z" stroke="#FF953E" stroke-width="3.77273" stroke-linecap="round" stroke-linejoin="round"/>
<path id="Vector_3" d="M14.3408 28.123V37.2854M96.8019 28.123V37.2854" stroke="#FF953E" stroke-width="3.77273" stroke-linecap="round"/>
<path id="Vector_4" d="M34.9562 73.9343C37.4863 73.9343 39.5373 71.8833 39.5373 69.3531C39.5373 66.823 37.4863 64.772 34.9562 64.772C32.4261 64.772 30.375 66.823 30.375 69.3531C30.375 71.8833 32.4261 73.9343 34.9562 73.9343Z" fill="#FF953E"/>
<path id="Vector_5" d="M76.1866 73.9343C78.7167 73.9343 80.7678 71.8833 80.7678 69.3531C80.7678 66.823 78.7167 64.772 76.1866 64.772C73.6565 64.772 71.6055 66.823 71.6055 69.3531C71.6055 71.8833 73.6565 73.9343 76.1866 73.9343Z" fill="#FF953E"/>
<path id="Vector_6" d="M71.6055 14.3794L50.9902 37.2852M87.6396 16.67L76.1867 30.4135" stroke="#FF953E" stroke-width="3.77273" stroke-linecap="round"/>
</g>
</g>
</svg>
