<svg xmlns="http://www.w3.org/2000/svg" width="888" height="888" viewBox="0 0 888 888" fill="none">
  <path d="M22.2619 0.150879H0.631348V21.7815H22.2619V0.150879Z" fill="black"/>
  <path d="M43.8925 0.150879H22.2619V21.7815H43.8925V0.150879Z" fill="black"/>
  <path d="M65.5231 0.150879H43.8925V21.7815H65.5231V0.150879Z" fill="black"/>
  <path d="M87.1537 0.150879H65.5231V21.7815H87.1537V0.150879Z" fill="black"/>
  <path d="M108.784 0.150879H87.1537V21.7815H108.784V0.150879Z" fill="black"/>
  <path d="M130.415 0.150879H108.784V21.7815H130.415V0.150879Z" fill="black"/>
  <path d="M152.045 0.150879H130.415V21.7815H152.045V0.150879Z" fill="black"/>
  <path d="M195.307 0.150879H173.676V21.7815H195.307V0.150879Z" fill="black"/>
  <path d="M216.937 0.150879H195.307V21.7815H216.937V0.150879Z" fill="black"/>
  <path d="M238.568 0.150879H216.937V21.7815H238.568V0.150879Z" fill="black"/>
  <path d="M411.612 0.150879H389.982V21.7815H411.612V0.150879Z" fill="black"/>
  <path d="M433.243 0.150879H411.612V21.7815H433.243V0.150879Z" fill="black"/>
  <path d="M476.504 0.150879H454.874V21.7815H476.504V0.150879Z" fill="black"/>
  <path d="M498.135 0.150879H476.504V21.7815H498.135V0.150879Z" fill="black"/>
  <path d="M563.027 0.150879H541.396V21.7815H563.027V0.150879Z" fill="black"/>
  <path d="M627.918 0.150879H606.288V21.7815H627.918V0.150879Z" fill="black"/>
  <path d="M649.549 0.150879H627.918V21.7815H649.549V0.150879Z" fill="black"/>
  <path d="M714.441 0.150879H692.81V21.7815H714.441V0.150879Z" fill="black"/>
  <path d="M757.702 0.150879H736.071V21.7815H757.702V0.150879Z" fill="black"/>
  <path d="M779.332 0.150879H757.702V21.7815H779.332V0.150879Z" fill="black"/>
  <path d="M800.963 0.150879H779.332V21.7815H800.963V0.150879Z" fill="black"/>
  <path d="M822.594 0.150879H800.963V21.7815H822.594V0.150879Z" fill="black"/>
  <path d="M844.224 0.150879H822.594V21.7815H844.224V0.150879Z" fill="black"/>
  <path d="M865.855 0.150879H844.224V21.7815H865.855V0.150879Z" fill="black"/>
  <path d="M887.485 0.150879H865.855V21.7815H887.485V0.150879Z" fill="black"/>
  <path d="M22.2619 21.7815H0.631348V43.412H22.2619V21.7815Z" fill="black"/>
  <path d="M152.045 21.7815H130.415V43.412H152.045V21.7815Z" fill="black"/>
  <path d="M216.937 21.7815H195.307V43.412H216.937V21.7815Z" fill="black"/>
  <path d="M260.198 21.7815H238.568V43.412H260.198V21.7815Z" fill="black"/>
  <path d="M281.829 21.7815H260.198V43.412H281.829V21.7815Z" fill="black"/>
  <path d="M346.721 21.7815H325.09V43.412H346.721V21.7815Z" fill="black"/>
  <path d="M389.982 21.7815H368.351V43.412H389.982V21.7815Z" fill="black"/>
  <path d="M411.612 21.7815H389.982V43.412H411.612V21.7815Z" fill="black"/>
  <path d="M433.243 21.7815H411.612V43.412H433.243V21.7815Z" fill="black"/>
  <path d="M454.874 21.7815H433.243V43.412H454.874V21.7815Z" fill="black"/>
  <path d="M519.765 21.7815H498.135V43.412H519.765V21.7815Z" fill="black"/>
  <path d="M541.396 21.7815H519.765V43.412H541.396V21.7815Z" fill="black"/>
  <path d="M714.441 21.7815H692.81V43.412H714.441V21.7815Z" fill="black"/>
  <path d="M757.702 21.7815H736.071V43.412H757.702V21.7815Z" fill="black"/>
  <path d="M887.485 21.7815H865.855V43.412H887.485V21.7815Z" fill="black"/>
  <path d="M22.2619 43.412H0.631348V65.0426H22.2619V43.412Z" fill="black"/>
  <path d="M65.5231 43.412H43.8925V65.0426H65.5231V43.412Z" fill="black"/>
  <path d="M87.1537 43.412H65.5231V65.0426H87.1537V43.412Z" fill="black"/>
  <path d="M108.784 43.412H87.1537V65.0426H108.784V43.412Z" fill="black"/>
  <path d="M152.045 43.412H130.415V65.0426H152.045V43.412Z" fill="black"/>
  <path d="M260.198 43.412H238.568V65.0426H260.198V43.412Z" fill="black"/>
  <path d="M303.46 43.412H281.829V65.0426H303.46V43.412Z" fill="black"/>
  <path d="M346.721 43.412H325.09V65.0426H346.721V43.412Z" fill="black"/>
  <path d="M368.351 43.412H346.721V65.0426H368.351V43.412Z" fill="black"/>
  <path d="M433.243 43.412H411.612V65.0426H433.243V43.412Z" fill="black"/>
  <path d="M498.135 43.412H476.504V65.0426H498.135V43.412Z" fill="black"/>
  <path d="M519.765 43.412H498.135V65.0426H519.765V43.412Z" fill="black"/>
  <path d="M649.549 43.412H627.918V65.0426H649.549V43.412Z" fill="black"/>
  <path d="M692.81 43.412H671.179V65.0426H692.81V43.412Z" fill="black"/>
  <path d="M714.441 43.412H692.81V65.0426H714.441V43.412Z" fill="black"/>
  <path d="M757.702 43.412H736.071V65.0426H757.702V43.412Z" fill="black"/>
  <path d="M800.963 43.412H779.332V65.0426H800.963V43.412Z" fill="black"/>
  <path d="M822.594 43.412H800.963V65.0426H822.594V43.412Z" fill="black"/>
  <path d="M844.224 43.412H822.594V65.0426H844.224V43.412Z" fill="black"/>
  <path d="M887.485 43.412H865.855V65.0426H887.485V43.412Z" fill="black"/>
  <path d="M22.2619 65.0426H0.631348V86.6732H22.2619V65.0426Z" fill="black"/>
  <path d="M65.5231 65.0426H43.8925V86.6732H65.5231V65.0426Z" fill="black"/>
  <path d="M87.1537 65.0426H65.5231V86.6732H87.1537V65.0426Z" fill="black"/>
  <path d="M108.784 65.0426H87.1537V86.6732H108.784V65.0426Z" fill="black"/>
  <path d="M152.045 65.0426H130.415V86.6732H152.045V65.0426Z" fill="black"/>
  <path d="M216.937 65.0426H195.307V86.6732H216.937V65.0426Z" fill="black"/>
  <path d="M281.829 65.0426H260.198V86.6732H281.829V65.0426Z" fill="black"/>
  <path d="M368.351 65.0426H346.721V86.6732H368.351V65.0426Z" fill="black"/>
  <path d="M411.612 65.0426H389.982V86.6732H411.612V65.0426Z" fill="black"/>
  <path d="M454.874 65.0426H433.243V86.6732H454.874V65.0426Z" fill="black"/>
  <path d="M498.135 65.0426H476.504V86.6732H498.135V65.0426Z" fill="black"/>
  <path d="M519.765 65.0426H498.135V86.6732H519.765V65.0426Z" fill="black"/>
  <path d="M584.657 65.0426H563.027V86.6732H584.657V65.0426Z" fill="black"/>
  <path d="M606.288 65.0426H584.657V86.6732H606.288V65.0426Z" fill="black"/>
  <path d="M627.918 65.0426H606.288V86.6732H627.918V65.0426Z" fill="black"/>
  <path d="M649.549 65.0426H627.918V86.6732H649.549V65.0426Z" fill="black"/>
  <path d="M714.441 65.0426H692.81V86.6732H714.441V65.0426Z" fill="black"/>
  <path d="M757.702 65.0426H736.071V86.6732H757.702V65.0426Z" fill="black"/>
  <path d="M800.963 65.0426H779.332V86.6732H800.963V65.0426Z" fill="black"/>
  <path d="M822.594 65.0426H800.963V86.6732H822.594V65.0426Z" fill="black"/>
  <path d="M844.224 65.0426H822.594V86.6732H844.224V65.0426Z" fill="black"/>
  <path d="M887.485 65.0426H865.855V86.6732H887.485V65.0426Z" fill="black"/>
  <path d="M22.2619 86.6732H0.631348V108.304H22.2619V86.6732Z" fill="black"/>
  <path d="M65.5231 86.6732H43.8925V108.304H65.5231V86.6732Z" fill="black"/>
  <path d="M87.1537 86.6732H65.5231V108.304H87.1537V86.6732Z" fill="black"/>
  <path d="M108.784 86.6732H87.1537V108.304H108.784V86.6732Z" fill="black"/>
  <path d="M152.045 86.6732H130.415V108.304H152.045V86.6732Z" fill="black"/>
  <path d="M195.307 86.6732L173.676 86.6732V108.304H195.307V86.6732Z" fill="black"/>
  <path d="M216.937 86.6732H195.307V108.304H216.937V86.6732Z" fill="black"/>
  <path d="M238.568 86.6732L216.937 86.6732V108.304H238.568V86.6732Z" fill="black"/>
  <path d="M260.198 86.6732L238.568 86.6732V108.304H260.198V86.6732Z" fill="black"/>
  <path d="M281.829 86.6732H260.198V108.304H281.829V86.6732Z" fill="black"/>
  <path d="M303.46 86.6732L281.829 86.6732V108.304H303.46V86.6732Z" fill="black"/>
  <path d="M346.721 86.6732L325.09 86.6732V108.304H346.721V86.6732Z" fill="black"/>
  <path d="M498.135 86.6732H476.504V108.304H498.135V86.6732Z" fill="black"/>
  <path d="M519.765 86.6732H498.135V108.304H519.765V86.6732Z" fill="black"/>
  <path d="M541.396 86.6732L519.765 86.6732V108.304H541.396V86.6732Z" fill="black"/>
  <path d="M563.027 86.6732L541.396 86.6732V108.304H563.027V86.6732Z" fill="black"/>
  <path d="M584.657 86.6732H563.027V108.304H584.657V86.6732Z" fill="black"/>
  <path d="M627.918 86.6732H606.288V108.304H627.918V86.6732Z" fill="black"/>
  <path d="M649.549 86.6732H627.918V108.304H649.549V86.6732Z" fill="black"/>
  <path d="M692.81 86.6732L671.179 86.6732V108.304H692.81V86.6732Z" fill="black"/>
  <path d="M714.441 86.6732H692.81V108.304H714.441V86.6732Z" fill="black"/>
  <path d="M757.702 86.6732H736.071V108.304H757.702V86.6732Z" fill="black"/>
  <path d="M800.963 86.6732H779.332V108.304H800.963V86.6732Z" fill="black"/>
  <path d="M822.594 86.6732H800.963V108.304H822.594V86.6732Z" fill="black"/>
  <path d="M844.224 86.6732H822.594V108.304H844.224V86.6732Z" fill="black"/>
  <path d="M887.485 86.6732H865.855V108.304H887.485V86.6732Z" fill="black"/>
  <path d="M22.2619 108.304H0.631348V129.934H22.2619V108.304Z" fill="black"/>
  <path d="M152.045 108.304H130.415V129.934H152.045V108.304Z" fill="black"/>
  <path d="M216.937 108.304H195.307V129.934H216.937V108.304Z" fill="black"/>
  <path d="M346.721 108.304H325.09V129.934H346.721V108.304Z" fill="black"/>
  <path d="M433.243 108.304H411.612V129.934H433.243V108.304Z" fill="black"/>
  <path d="M498.135 108.304H476.504V129.934H498.135V108.304Z" fill="black"/>
  <path d="M584.657 108.304H563.027V129.934H584.657V108.304Z" fill="black"/>
  <path d="M649.549 108.304H627.918V129.934H649.549V108.304Z" fill="black"/>
  <path d="M757.702 108.304H736.071V129.934H757.702V108.304Z" fill="black"/>
  <path d="M887.485 108.304H865.855V129.934H887.485V108.304Z" fill="black"/>
  <path d="M22.2619 129.934H0.631348V151.565H22.2619V129.934Z" fill="black"/>
  <path d="M43.8925 129.934H22.2619V151.565H43.8925V129.934Z" fill="black"/>
  <path d="M65.5231 129.934H43.8925V151.565H65.5231V129.934Z" fill="black"/>
  <path d="M87.1537 129.934H65.5231V151.565H87.1537V129.934Z" fill="black"/>
  <path d="M108.784 129.934H87.1537V151.565H108.784V129.934Z" fill="black"/>
  <path d="M130.415 129.934H108.784V151.565H130.415V129.934Z" fill="black"/>
  <path d="M152.045 129.934H130.415V151.565H152.045V129.934Z" fill="black"/>
  <path d="M195.307 129.934H173.676V151.565H195.307V129.934Z" fill="black"/>
  <path d="M238.568 129.934H216.937V151.565H238.568V129.934Z" fill="black"/>
  <path d="M281.829 129.934H260.198V151.565H281.829V129.934Z" fill="black"/>
  <path d="M325.09 129.934H303.46V151.565H325.09V129.934Z" fill="black"/>
  <path d="M368.351 129.934H346.721V151.565H368.351V129.934Z" fill="black"/>
  <path d="M411.612 129.934H389.982V151.565H411.612V129.934Z" fill="black"/>
  <path d="M454.874 129.934H433.243V151.565H454.874V129.934Z" fill="black"/>
  <path d="M498.135 129.934H476.504V151.565H498.135V129.934Z" fill="black"/>
  <path d="M541.396 129.934H519.765V151.565H541.396V129.934Z" fill="black"/>
  <path d="M584.657 129.934H563.027V151.565H584.657V129.934Z" fill="black"/>
  <path d="M627.918 129.934H606.288V151.565H627.918V129.934Z" fill="black"/>
  <path d="M671.179 129.934H649.549V151.565H671.179V129.934Z" fill="black"/>
  <path d="M714.441 129.934H692.81V151.565H714.441V129.934Z" fill="black"/>
  <path d="M757.702 129.934H736.071V151.565H757.702V129.934Z" fill="black"/>
  <path d="M779.332 129.934H757.702V151.565H779.332V129.934Z" fill="black"/>
  <path d="M800.963 129.934H779.332V151.565H800.963V129.934Z" fill="black"/>
  <path d="M822.594 129.934H800.963V151.565H822.594V129.934Z" fill="black"/>
  <path d="M844.224 129.934H822.594V151.565H844.224V129.934Z" fill="black"/>
  <path d="M865.855 129.934H844.224V151.565H865.855V129.934Z" fill="black"/>
  <path d="M887.485 129.934H865.855V151.565H887.485V129.934Z" fill="black"/>
  <path d="M195.307 151.565H173.676V173.196H195.307V151.565Z" fill="black"/>
  <path d="M238.568 151.565H216.937V173.196H238.568V151.565Z" fill="black"/>
  <path d="M281.829 151.565H260.198V173.196H281.829V151.565Z" fill="black"/>
  <path d="M303.46 151.565H281.829V173.196H303.46V151.565Z" fill="black"/>
  <path d="M368.351 151.565H346.721V173.196H368.351V151.565Z" fill="black"/>
  <path d="M389.982 151.565H368.351V173.196H389.982V151.565Z" fill="black"/>
  <path d="M498.135 151.565H476.504V173.196H498.135V151.565Z" fill="black"/>
  <path d="M563.027 151.565H541.396V173.196H563.027V151.565Z" fill="black"/>
  <path d="M584.657 151.565H563.027V173.196H584.657V151.565Z" fill="black"/>
  <path d="M606.288 151.565H584.657V173.196H606.288V151.565Z" fill="black"/>
  <path d="M692.81 151.565H671.179V173.196H692.81V151.565Z" fill="black"/>
  <path d="M714.441 151.565H692.81V173.196H714.441V151.565Z" fill="black"/>
  <path d="M22.2619 173.196H0.631348V194.826H22.2619V173.196Z" fill="black"/>
  <path d="M87.1537 173.196H65.5231V194.826H87.1537V173.196Z" fill="black"/>
  <path d="M108.784 173.196H87.1537V194.826H108.784V173.196Z" fill="black"/>
  <path d="M130.415 173.196H108.784V194.826H130.415V173.196Z" fill="black"/>
  <path d="M152.045 173.196H130.415V194.826H152.045V173.196Z" fill="black"/>
  <path d="M173.676 173.196H152.045V194.826H173.676V173.196Z" fill="black"/>
  <path d="M195.307 173.196H173.676V194.826H195.307V173.196Z" fill="black"/>
  <path d="M216.937 173.196H195.307V194.826H216.937V173.196Z" fill="black"/>
  <path d="M238.568 173.196H216.937V194.826H238.568V173.196Z" fill="black"/>
  <path d="M260.198 173.196H238.568V194.826H260.198V173.196Z" fill="black"/>
  <path d="M346.721 173.196H325.09V194.826H346.721V173.196Z" fill="black"/>
  <path d="M389.982 173.196H368.351V194.826H389.982V173.196Z" fill="black"/>
  <path d="M454.874 173.196H433.243V194.826H454.874V173.196Z" fill="black"/>
  <path d="M498.135 173.196H476.504V194.826H498.135V173.196Z" fill="black"/>
  <path d="M541.396 173.196H519.765V194.826H541.396V173.196Z" fill="black"/>
  <path d="M627.918 173.196H606.288V194.826H627.918V173.196Z" fill="black"/>
  <path d="M671.179 173.196H649.549V194.826H671.179V173.196Z" fill="black"/>
  <path d="M692.81 173.196H671.179V194.826H692.81V173.196Z" fill="black"/>
  <path d="M736.071 173.196H714.441V194.826H736.071V173.196Z" fill="black"/>
  <path d="M757.702 173.196H736.071V194.826H757.702V173.196Z" fill="black"/>
  <path d="M800.963 173.196H779.332V194.826H800.963V173.196Z" fill="black"/>
  <path d="M887.485 173.196H865.855V194.826H887.485V173.196Z" fill="black"/>
  <path d="M108.784 194.826H87.1537L87.1537 216.457H108.784V194.826Z" fill="black"/>
  <path d="M130.415 194.826H108.784V216.457H130.415V194.826Z" fill="black"/>
  <path d="M195.307 194.826H173.676V216.457H195.307V194.826Z" fill="black"/>
  <path d="M216.937 194.826H195.307V216.457H216.937V194.826Z" fill="black"/>
  <path d="M281.829 194.826H260.198V216.457H281.829V194.826Z" fill="black"/>
  <path d="M303.46 194.826H281.829V216.457H303.46V194.826Z" fill="black"/>
  <path d="M325.09 194.826H303.46V216.457H325.09V194.826Z" fill="black"/>
  <path d="M368.351 194.826H346.721V216.457H368.351V194.826Z" fill="black"/>
  <path d="M389.982 194.826H368.351V216.457H389.982V194.826Z" fill="black"/>
  <path d="M411.612 194.826H389.982V216.457H411.612V194.826Z" fill="black"/>
  <path d="M433.243 194.826H411.612V216.457H433.243V194.826Z" fill="black"/>
  <path d="M454.874 194.826H433.243V216.457H454.874V194.826Z" fill="black"/>
  <path d="M476.504 194.826H454.874V216.457H476.504V194.826Z" fill="black"/>
  <path d="M541.396 194.826H519.765V216.457H541.396V194.826Z" fill="black"/>
  <path d="M606.288 194.826H584.657V216.457H606.288V194.826Z" fill="black"/>
  <path d="M627.918 194.826H606.288V216.457H627.918V194.826Z" fill="black"/>
  <path d="M671.179 194.826H649.549V216.457H671.179V194.826Z" fill="black"/>
  <path d="M692.81 194.826H671.179V216.457H692.81V194.826Z" fill="black"/>
  <path d="M757.702 194.826H736.071V216.457H757.702V194.826Z" fill="black"/>
  <path d="M800.963 194.826H779.332V216.457H800.963V194.826Z" fill="black"/>
  <path d="M822.594 194.826H800.963V216.457H822.594V194.826Z" fill="black"/>
  <path d="M887.485 194.826H865.855V216.457H887.485V194.826Z" fill="black"/>
  <path d="M22.2619 216.457H0.631348V238.087H22.2619V216.457Z" fill="black"/>
  <path d="M43.8925 216.457H22.2619V238.087H43.8925V216.457Z" fill="black"/>
  <path d="M65.5231 216.457H43.8925V238.087H65.5231V216.457Z" fill="black"/>
  <path d="M152.045 216.457H130.415V238.087H152.045V216.457Z" fill="black"/>
  <path d="M173.676 216.457H152.045V238.087H173.676V216.457Z" fill="black"/>
  <path d="M216.937 216.457H195.307V238.087H216.937V216.457Z" fill="black"/>
  <path d="M238.568 216.457H216.937V238.087H238.568V216.457Z" fill="black"/>
  <path d="M260.198 216.457H238.568V238.087H260.198V216.457Z" fill="black"/>
  <path d="M281.829 216.457H260.198V238.087H281.829V216.457Z" fill="black"/>
  <path d="M303.46 216.457H281.829V238.087H303.46V216.457Z" fill="black"/>
  <path d="M325.09 216.457H303.46V238.087H325.09V216.457Z" fill="black"/>
  <path d="M389.982 216.457H368.351V238.087H389.982V216.457Z" fill="black"/>
  <path d="M433.243 216.457H411.612V238.087H433.243V216.457Z" fill="black"/>
  <path d="M519.765 216.457H498.135V238.087H519.765V216.457Z" fill="black"/>
  <path d="M584.657 216.457H563.027V238.087H584.657V216.457Z" fill="black"/>
  <path d="M606.288 216.457H584.657V238.087H606.288V216.457Z" fill="black"/>
  <path d="M649.549 216.457H627.918V238.087H649.549V216.457Z" fill="black"/>
  <path d="M736.071 216.457H714.441V238.087H736.071V216.457Z" fill="black"/>
  <path d="M757.702 216.457H736.071V238.087H757.702V216.457Z" fill="black"/>
  <path d="M779.332 216.457H757.702V238.087H779.332V216.457Z" fill="black"/>
  <path d="M822.594 216.457H800.963V238.087H822.594V216.457Z" fill="black"/>
  <path d="M43.8925 238.087H22.2619V259.718H43.8925V238.087Z" fill="black"/>
  <path d="M87.1537 238.087H65.5231V259.718H87.1537V238.087Z" fill="black"/>
  <path d="M108.784 238.087H87.1537V259.718H108.784V238.087Z" fill="black"/>
  <path d="M173.676 238.087H152.045V259.718H173.676V238.087Z" fill="black"/>
  <path d="M195.307 238.087H173.676V259.718H195.307V238.087Z" fill="black"/>
  <path d="M216.937 238.087H195.307V259.718H216.937V238.087Z" fill="black"/>
  <path d="M238.568 238.087H216.937V259.718H238.568V238.087Z" fill="black"/>
  <path d="M260.198 238.087H238.568V259.718H260.198V238.087Z" fill="black"/>
  <path d="M281.829 238.087H260.198V259.718H281.829V238.087Z" fill="black"/>
  <path d="M346.721 238.087H325.09V259.718H346.721V238.087Z" fill="black"/>
  <path d="M368.351 238.087H346.721V259.718H368.351V238.087Z" fill="black"/>
  <path d="M498.135 238.087H476.504V259.718H498.135V238.087Z" fill="black"/>
  <path d="M519.765 238.087H498.135V259.718H519.765V238.087Z" fill="black"/>
  <path d="M584.657 238.087H563.027V259.718H584.657V238.087Z" fill="black"/>
  <path d="M606.288 238.087H584.657V259.718H606.288V238.087Z" fill="black"/>
  <path d="M649.549 238.087H627.918V259.718H649.549V238.087Z" fill="black"/>
  <path d="M671.179 238.087H649.549V259.718H671.179V238.087Z" fill="black"/>
  <path d="M692.81 238.087H671.179V259.718H692.81V238.087Z" fill="black"/>
  <path d="M714.441 238.087H692.81V259.718H714.441V238.087Z" fill="black"/>
  <path d="M757.702 238.087H736.071V259.718H757.702V238.087Z" fill="black"/>
  <path d="M779.332 238.087H757.702V259.718H779.332V238.087Z" fill="black"/>
  <path d="M822.594 238.087H800.963V259.718H822.594V238.087Z" fill="black"/>
  <path d="M865.855 238.087H844.224V259.718H865.855V238.087Z" fill="black"/>
  <path d="M887.485 238.087H865.855V259.718H887.485V238.087Z" fill="black"/>
  <path d="M22.2619 259.718H0.631348V281.348H22.2619V259.718Z" fill="black"/>
  <path d="M43.8925 259.718H22.2619V281.348H43.8925V259.718Z" fill="black"/>
  <path d="M65.5231 259.718H43.8925V281.348H65.5231V259.718Z" fill="black"/>
  <path d="M87.1537 259.718H65.5231V281.348H87.1537V259.718Z" fill="black"/>
  <path d="M108.784 259.718H87.1537V281.348H108.784V259.718Z" fill="black"/>
  <path d="M152.045 259.718H130.415V281.348H152.045V259.718Z" fill="black"/>
  <path d="M281.829 259.718H260.198V281.348H281.829V259.718Z" fill="black"/>
  <path d="M303.46 259.718H281.829V281.348H303.46V259.718Z" fill="black"/>
  <path d="M325.09 259.718H303.46V281.348H325.09V259.718Z" fill="black"/>
  <path d="M389.982 259.718H368.351V281.348H389.982V259.718Z" fill="black"/>
  <path d="M433.243 259.718H411.612V281.348H433.243V259.718Z" fill="black"/>
  <path d="M454.874 259.718H433.243V281.348H454.874V259.718Z" fill="black"/>
  <path d="M476.504 259.718H454.874V281.348H476.504V259.718Z" fill="black"/>
  <path d="M519.765 259.718H498.135V281.348H519.765V259.718Z" fill="black"/>
  <path d="M606.288 259.718H584.657V281.348H606.288V259.718Z" fill="black"/>
  <path d="M627.918 259.718H606.288V281.348H627.918V259.718Z" fill="black"/>
  <path d="M714.441 259.718H692.81V281.348H714.441V259.718Z" fill="black"/>
  <path d="M757.702 259.718H736.071V281.348H757.702V259.718Z" fill="black"/>
  <path d="M779.332 259.718H757.702V281.348H779.332V259.718Z" fill="black"/>
  <path d="M844.224 259.718H822.594V281.348H844.224V259.718Z" fill="black"/>
  <path d="M865.855 259.718H844.224V281.348H865.855V259.718Z" fill="black"/>
  <path d="M887.485 259.718H865.855V281.348H887.485V259.718Z" fill="black"/>
  <path d="M22.2619 281.348H0.631348V302.979H22.2619V281.348Z" fill="black"/>
  <path d="M43.8925 281.348H22.2619V302.979H43.8925V281.348Z" fill="black"/>
  <path d="M87.1537 281.348H65.5231V302.979H87.1537V281.348Z" fill="black"/>
  <path d="M108.784 281.348H87.1537V302.979H108.784V281.348Z" fill="black"/>
  <path d="M130.415 281.348H108.784V302.979H130.415V281.348Z" fill="black"/>
  <path d="M238.568 281.348H216.937V302.979H238.568V281.348Z" fill="black"/>
  <path d="M303.46 281.348H281.829V302.979H303.46V281.348Z" fill="black"/>
  <path d="M346.721 281.348H325.09V302.979H346.721V281.348Z" fill="black"/>
  <path d="M368.351 281.348H346.721V302.979H368.351V281.348Z" fill="black"/>
  <path d="M433.243 281.348H411.612V302.979H433.243V281.348Z" fill="black"/>
  <path d="M476.504 281.348H454.874V302.979H476.504V281.348Z" fill="black"/>
  <path d="M519.765 281.348H498.135V302.979H519.765V281.348Z" fill="black"/>
  <path d="M606.288 281.348H584.657V302.979H606.288V281.348Z" fill="black"/>
  <path d="M649.549 281.348H627.918V302.979H649.549V281.348Z" fill="black"/>
  <path d="M714.441 281.348H692.81V302.979H714.441V281.348Z" fill="black"/>
  <path d="M736.071 281.348H714.441V302.979H736.071V281.348Z" fill="black"/>
  <path d="M757.702 281.348H736.071V302.979H757.702V281.348Z" fill="black"/>
  <path d="M779.332 281.348H757.702V302.979H779.332V281.348Z" fill="black"/>
  <path d="M800.963 281.348H779.332V302.979H800.963V281.348Z" fill="black"/>
  <path d="M822.594 281.348H800.963V302.979H822.594V281.348Z" fill="black"/>
  <path d="M887.485 281.348H865.855V302.979H887.485V281.348Z" fill="black"/>
  <path d="M22.2619 302.979H0.631348V324.61H22.2619V302.979Z" fill="black"/>
  <path d="M43.8925 302.979H22.2619V324.61H43.8925V302.979Z" fill="black"/>
  <path d="M65.5231 302.979H43.8925V324.61H65.5231V302.979Z" fill="black"/>
  <path d="M108.784 302.979H87.1537L87.1537 324.61H108.784V302.979Z" fill="black"/>
  <path d="M152.045 302.979H130.415V324.61H152.045V302.979Z" fill="black"/>
  <path d="M173.676 302.979H152.045V324.61H173.676V302.979Z" fill="black"/>
  <path d="M195.307 302.979H173.676V324.61H195.307V302.979Z" fill="black"/>
  <path d="M238.568 302.979H216.937V324.61H238.568V302.979Z" fill="black"/>
  <path d="M325.09 302.979H303.46V324.61H325.09V302.979Z" fill="black"/>
  <path d="M476.504 302.979H454.874V324.61H476.504V302.979Z" fill="black"/>
  <path d="M519.765 302.979H498.135V324.61H519.765V302.979Z" fill="black"/>
  <path d="M563.027 302.979H541.396V324.61H563.027V302.979Z" fill="black"/>
  <path d="M606.288 302.979H584.657V324.61H606.288V302.979Z" fill="black"/>
  <path d="M671.179 302.979H649.549V324.61H671.179V302.979Z" fill="black"/>
  <path d="M757.702 302.979H736.071V324.61H757.702V302.979Z" fill="black"/>
  <path d="M865.855 302.979H844.224V324.61H865.855V302.979Z" fill="black"/>
  <path d="M130.415 324.61H108.784V346.24H130.415V324.61Z" fill="black"/>
  <path d="M173.676 324.61H152.045V346.24H173.676V324.61Z" fill="black"/>
  <path d="M195.307 324.61H173.676V346.24H195.307V324.61Z" fill="black"/>
  <path d="M216.937 324.61H195.307V346.24H216.937V324.61Z" fill="black"/>
  <path d="M238.568 324.61H216.937V346.24H238.568V324.61Z" fill="black"/>
  <path d="M303.46 324.61H281.829V346.24H303.46V324.61Z" fill="black"/>
  <path d="M325.09 324.61H303.46V346.24H325.09V324.61Z" fill="black"/>
  <path d="M346.721 324.61H325.09V346.24H346.721V324.61Z" fill="black"/>
  <path d="M368.351 324.61H346.721V346.24H368.351V324.61Z" fill="black"/>
  <path d="M454.874 324.61H433.243V346.24H454.874V324.61Z" fill="black"/>
  <path d="M498.135 324.61H476.504V346.24H498.135V324.61Z" fill="black"/>
  <path d="M519.765 324.61H498.135V346.24H519.765V324.61Z" fill="black"/>
  <path d="M563.027 324.61H541.396V346.24H563.027V324.61Z" fill="black"/>
  <path d="M627.918 324.61H606.288V346.24H627.918V324.61Z" fill="black"/>
  <path d="M692.81 324.61H671.179V346.24H692.81V324.61Z" fill="black"/>
  <path d="M736.071 324.61H714.441V346.24H736.071V324.61Z" fill="black"/>
  <path d="M779.332 324.61H757.702V346.24H779.332V324.61Z" fill="black"/>
  <path d="M822.594 324.61H800.963V346.24H822.594V324.61Z" fill="black"/>
  <path d="M844.224 324.61H822.594V346.24H844.224V324.61Z" fill="black"/>
  <path d="M865.855 324.61H844.224V346.24H865.855V324.61Z" fill="black"/>
  <path d="M43.8925 346.24H22.2619V367.871H43.8925V346.24Z" fill="black"/>
  <path d="M65.5231 346.24H43.8925V367.871H65.5231V346.24Z" fill="black"/>
  <path d="M152.045 346.24H130.415V367.871H152.045V346.24Z" fill="black"/>
  <path d="M195.307 346.24H173.676V367.871H195.307V346.24Z" fill="black"/>
  <path d="M216.937 346.24H195.307V367.871H216.937V346.24Z" fill="black"/>
  <path d="M260.198 346.24H238.568V367.871H260.198V346.24Z" fill="black"/>
  <path d="M303.46 346.24H281.829V367.871H303.46V346.24Z" fill="black"/>
  <path d="M325.09 346.24H303.46V367.871H325.09V346.24Z" fill="black"/>
  <path d="M368.351 346.24H346.721V367.871H368.351V346.24Z" fill="black"/>
  <path d="M389.982 346.24H368.351V367.871H389.982V346.24Z" fill="black"/>
  <path d="M411.612 346.24H389.982V367.871H411.612V346.24Z" fill="black"/>
  <path d="M476.504 346.24H454.874V367.871H476.504V346.24Z" fill="black"/>
  <path d="M519.765 346.24H498.135V367.871H519.765V346.24Z" fill="black"/>
  <path d="M606.288 346.24H584.657V367.871H606.288V346.24Z" fill="black"/>
  <path d="M627.918 346.24H606.288V367.871H627.918V346.24Z" fill="black"/>
  <path d="M671.179 346.24H649.549V367.871H671.179V346.24Z" fill="black"/>
  <path d="M736.071 346.24H714.441V367.871H736.071V346.24Z" fill="black"/>
  <path d="M800.963 346.24H779.332V367.871H800.963V346.24Z" fill="black"/>
  <path d="M865.855 346.24H844.224V367.871H865.855V346.24Z" fill="black"/>
  <path d="M887.485 346.24H865.855V367.871H887.485V346.24Z" fill="black"/>
  <path d="M22.2619 367.871H0.631348V389.501H22.2619V367.871Z" fill="black"/>
  <path d="M43.8925 367.871H22.2619V389.501H43.8925V367.871Z" fill="black"/>
  <path d="M87.1537 367.871H65.5231V389.501H87.1537V367.871Z" fill="black"/>
  <path d="M173.676 367.871H152.045V389.501H173.676V367.871Z" fill="black"/>
  <path d="M260.198 367.871H238.568V389.501H260.198V367.871Z" fill="black"/>
  <path d="M281.829 367.871H260.198V389.501H281.829V367.871Z" fill="black"/>
  <path d="M346.721 367.871H325.09V389.501H346.721V367.871Z" fill="black"/>
  <path d="M411.612 367.871H389.982V389.501H411.612V367.871Z" fill="black"/>
  <path d="M433.243 367.871H411.612V389.501H433.243V367.871Z" fill="black"/>
  <path d="M476.504 367.871H454.874V389.501H476.504V367.871Z" fill="black"/>
  <path d="M519.765 367.871H498.135V389.501H519.765V367.871Z" fill="black"/>
  <path d="M541.396 367.871H519.765V389.501H541.396V367.871Z" fill="black"/>
  <path d="M606.288 367.871H584.657V389.501H606.288V367.871Z" fill="black"/>
  <path d="M649.549 367.871H627.918V389.501H649.549V367.871Z" fill="black"/>
  <path d="M692.81 367.871H671.179V389.501H692.81V367.871Z" fill="black"/>
  <path d="M714.441 367.871H692.81V389.501H714.441V367.871Z" fill="black"/>
  <path d="M736.071 367.871H714.441V389.501H736.071V367.871Z" fill="black"/>
  <path d="M822.594 367.871H800.963V389.501H822.594V367.871Z" fill="black"/>
  <path d="M87.1537 389.501H65.5231V411.132H87.1537V389.501Z" fill="black"/>
  <path d="M108.784 389.501H87.1537V411.132H108.784V389.501Z" fill="black"/>
  <path d="M130.415 389.501H108.784V411.132H130.415V389.501Z" fill="black"/>
  <path d="M152.045 389.501H130.415V411.132H152.045V389.501Z" fill="black"/>
  <path d="M216.937 389.501H195.307V411.132H216.937V389.501Z" fill="black"/>
  <path d="M281.829 389.501H260.198V411.132H281.829V389.501Z" fill="black"/>
  <path d="M368.351 389.501H346.721V411.132H368.351V389.501Z" fill="black"/>
  <path d="M389.982 389.501H368.351V411.132H389.982V389.501Z" fill="black"/>
  <path d="M433.243 389.501H411.612V411.132H433.243V389.501Z" fill="black"/>
  <path d="M454.874 389.501H433.243V411.132H454.874V389.501Z" fill="black"/>
  <path d="M498.135 389.501H476.504V411.132H498.135V389.501Z" fill="black"/>
  <path d="M563.027 389.501H541.396V411.132H563.027V389.501Z" fill="black"/>
  <path d="M584.657 389.501H563.027V411.132H584.657V389.501Z" fill="black"/>
  <path d="M606.288 389.501H584.657V411.132H606.288V389.501Z" fill="black"/>
  <path d="M627.918 389.501H606.288V411.132H627.918V389.501Z" fill="black"/>
  <path d="M649.549 389.501H627.918V411.132H649.549V389.501Z" fill="black"/>
  <path d="M714.441 389.501H692.81V411.132H714.441V389.501Z" fill="black"/>
  <path d="M757.702 389.501H736.071V411.132H757.702V389.501Z" fill="black"/>
  <path d="M822.594 389.501H800.963V411.132H822.594V389.501Z" fill="black"/>
  <path d="M865.855 389.501H844.224V411.132H865.855V389.501Z" fill="black"/>
  <path d="M887.485 389.501H865.855V411.132H887.485V389.501Z" fill="black"/>
  <path d="M43.8925 411.132H22.2619V432.763H43.8925V411.132Z" fill="black"/>
  <path d="M130.415 411.132H108.784V432.763H130.415V411.132Z" fill="black"/>
  <path d="M173.676 411.132H152.045V432.763H173.676V411.132Z" fill="black"/>
  <path d="M195.307 411.132H173.676V432.763H195.307V411.132Z" fill="black"/>
  <path d="M260.198 411.132H238.568V432.763H260.198V411.132Z" fill="black"/>
  <path d="M281.829 411.132H260.198V432.763H281.829V411.132Z" fill="black"/>
  <path d="M303.46 411.132H281.829V432.763H303.46V411.132Z" fill="black"/>
  <path d="M368.351 411.132H346.721V432.763H368.351V411.132Z" fill="black"/>
  <path d="M433.243 411.132H411.612V432.763H433.243V411.132Z" fill="black"/>
  <path d="M454.874 411.132H433.243V432.763H454.874V411.132Z" fill="black"/>
  <path d="M476.504 411.132H454.874V432.763H476.504V411.132Z" fill="black"/>
  <path d="M627.918 411.132H606.288V432.763H627.918V411.132Z" fill="black"/>
  <path d="M649.549 411.132H627.918V432.763H649.549V411.132Z" fill="black"/>
  <path d="M671.179 411.132H649.549V432.763H671.179V411.132Z" fill="black"/>
  <path d="M692.81 411.132H671.179V432.763H692.81V411.132Z" fill="black"/>
  <path d="M779.332 411.132H757.702V432.763H779.332V411.132Z" fill="black"/>
  <path d="M887.485 411.132H865.855V432.763H887.485V411.132Z" fill="black"/>
  <path d="M65.5231 432.763H43.8925V454.393H65.5231V432.763Z" fill="black"/>
  <path d="M87.1537 432.763H65.5231V454.393H87.1537V432.763Z" fill="black"/>
  <path d="M108.784 432.763H87.1537V454.393H108.784V432.763Z" fill="black"/>
  <path d="M152.045 432.763H130.415V454.393H152.045V432.763Z" fill="black"/>
  <path d="M195.307 432.763H173.676V454.393H195.307V432.763Z" fill="black"/>
  <path d="M216.937 432.763H195.307V454.393H216.937V432.763Z" fill="black"/>
  <path d="M238.568 432.763H216.937V454.393H238.568V432.763Z" fill="black"/>
  <path d="M303.46 432.763H281.829V454.393H303.46V432.763Z" fill="black"/>
  <path d="M325.09 432.763H303.46V454.393H325.09V432.763Z" fill="black"/>
  <path d="M368.351 432.763H346.721V454.393H368.351V432.763Z" fill="black"/>
  <path d="M411.612 432.763H389.982V454.393H411.612V432.763Z" fill="black"/>
  <path d="M433.243 432.763H411.612V454.393H433.243V432.763Z" fill="black"/>
  <path d="M454.874 432.763H433.243V454.393H454.874V432.763Z" fill="black"/>
  <path d="M498.135 432.763H476.504V454.393H498.135V432.763Z" fill="black"/>
  <path d="M519.765 432.763H498.135V454.393H519.765V432.763Z" fill="black"/>
  <path d="M584.657 432.763H563.027V454.393H584.657V432.763Z" fill="black"/>
  <path d="M606.288 432.763H584.657V454.393H606.288V432.763Z" fill="black"/>
  <path d="M627.918 432.763H606.288V454.393H627.918V432.763Z" fill="black"/>
  <path d="M692.81 432.763H671.179V454.393H692.81V432.763Z" fill="black"/>
  <path d="M714.441 432.763H692.81V454.393H714.441V432.763Z" fill="black"/>
  <path d="M779.332 432.763H757.702V454.393H779.332V432.763Z" fill="black"/>
  <path d="M800.963 432.763H779.332V454.393H800.963V432.763Z" fill="black"/>
  <path d="M822.594 432.763H800.963V454.393H822.594V432.763Z" fill="black"/>
  <path d="M22.2619 454.393H0.631348V476.024H22.2619V454.393Z" fill="black"/>
  <path d="M65.5231 454.393H43.8925V476.024H65.5231V454.393Z" fill="black"/>
  <path d="M87.1537 454.393H65.5231V476.024H87.1537V454.393Z" fill="black"/>
  <path d="M173.676 454.393H152.045V476.024H173.676V454.393Z" fill="black"/>
  <path d="M260.198 454.393H238.568V476.024H260.198V454.393Z" fill="black"/>
  <path d="M281.829 454.393H260.198V476.024H281.829V454.393Z" fill="black"/>
  <path d="M346.721 454.393H325.09V476.024H346.721V454.393Z" fill="black"/>
  <path d="M368.351 454.393H346.721V476.024H368.351V454.393Z" fill="black"/>
  <path d="M433.243 454.393H411.612V476.024H433.243V454.393Z" fill="black"/>
  <path d="M454.874 454.393H433.243V476.024H454.874V454.393Z" fill="black"/>
  <path d="M476.504 454.393H454.874V476.024H476.504V454.393Z" fill="black"/>
  <path d="M519.765 454.393H498.135V476.024H519.765V454.393Z" fill="black"/>
  <path d="M584.657 454.393H563.027V476.024H584.657V454.393Z" fill="black"/>
  <path d="M606.288 454.393H584.657V476.024H606.288V454.393Z" fill="black"/>
  <path d="M671.179 454.393H649.549V476.024H671.179V454.393Z" fill="black"/>
  <path d="M692.81 454.393H671.179V476.024H692.81V454.393Z" fill="black"/>
  <path d="M714.441 454.393H692.81V476.024H714.441V454.393Z" fill="black"/>
  <path d="M779.332 454.393H757.702V476.024H779.332V454.393Z" fill="black"/>
  <path d="M865.855 454.393H844.224V476.024H865.855V454.393Z" fill="black"/>
  <path d="M887.485 454.393H865.855V476.024H887.485V454.393Z" fill="black"/>
  <path d="M22.2619 476.024H0.631348V497.654H22.2619V476.024Z" fill="black"/>
  <path d="M43.8925 476.024H22.2619V497.654H43.8925V476.024Z" fill="black"/>
  <path d="M65.5231 476.024H43.8925V497.654H65.5231V476.024Z" fill="black"/>
  <path d="M130.415 476.024H108.784V497.654H130.415V476.024Z" fill="black"/>
  <path d="M152.045 476.024H130.415V497.654H152.045V476.024Z" fill="black"/>
  <path d="M173.676 476.024H152.045V497.654H173.676V476.024Z" fill="black"/>
  <path d="M303.46 476.024H281.829V497.654H303.46V476.024Z" fill="black"/>
  <path d="M325.09 476.024H303.46V497.654H325.09V476.024Z" fill="black"/>
  <path d="M368.351 476.024H346.721V497.654H368.351V476.024Z" fill="black"/>
  <path d="M411.612 476.024H389.982V497.654H411.612V476.024Z" fill="black"/>
  <path d="M476.504 476.024H454.874V497.654H476.504V476.024Z" fill="black"/>
  <path d="M498.135 476.024H476.504V497.654H498.135V476.024Z" fill="black"/>
  <path d="M519.765 476.024H498.135V497.654H519.765V476.024Z" fill="black"/>
  <path d="M541.396 476.024H519.765V497.654H541.396V476.024Z" fill="black"/>
  <path d="M627.918 476.024H606.288V497.654H627.918V476.024Z" fill="black"/>
  <path d="M649.549 476.024H627.918V497.654H649.549V476.024Z" fill="black"/>
  <path d="M714.441 476.024H692.81V497.654H714.441V476.024Z" fill="black"/>
  <path d="M757.702 476.024H736.071V497.654H757.702V476.024Z" fill="black"/>
  <path d="M779.332 476.024H757.702V497.654H779.332V476.024Z" fill="black"/>
  <path d="M844.224 476.024H822.594V497.654H844.224V476.024Z" fill="black"/>
  <path d="M865.855 476.024H844.224V497.654H865.855V476.024Z" fill="black"/>
  <path d="M887.485 476.024H865.855V497.654H887.485V476.024Z" fill="black"/>
  <path d="M22.2619 497.654H0.631348V519.285H22.2619V497.654Z" fill="black"/>
  <path d="M87.1537 497.654H65.5231V519.285H87.1537V497.654Z" fill="black"/>
  <path d="M108.784 497.654H87.1537V519.285H108.784V497.654Z" fill="black"/>
  <path d="M216.937 497.654H195.307V519.285H216.937V497.654Z" fill="black"/>
  <path d="M238.568 497.654H216.937V519.285H238.568V497.654Z" fill="black"/>
  <path d="M260.198 497.654H238.568V519.285H260.198V497.654Z" fill="black"/>
  <path d="M303.46 497.654H281.829V519.285H303.46V497.654Z" fill="black"/>
  <path d="M325.09 497.654H303.46V519.285H325.09V497.654Z" fill="black"/>
  <path d="M346.721 497.654H325.09V519.285H346.721V497.654Z" fill="black"/>
  <path d="M389.982 497.654H368.351V519.285H389.982V497.654Z" fill="black"/>
  <path d="M411.612 497.654H389.982V519.285H411.612V497.654Z" fill="black"/>
  <path d="M433.243 497.654H411.612V519.285H433.243V497.654Z" fill="black"/>
  <path d="M498.135 497.654H476.504V519.285H498.135V497.654Z" fill="black"/>
  <path d="M541.396 497.654H519.765V519.285H541.396V497.654Z" fill="black"/>
  <path d="M563.027 497.654H541.396V519.285H563.027V497.654Z" fill="black"/>
  <path d="M584.657 497.654H563.027V519.285H584.657V497.654Z" fill="black"/>
  <path d="M627.918 497.654H606.288V519.285H627.918V497.654Z" fill="black"/>
  <path d="M649.549 497.654H627.918V519.285H649.549V497.654Z" fill="black"/>
  <path d="M671.179 497.654H649.549V519.285H671.179V497.654Z" fill="black"/>
  <path d="M736.071 497.654H714.441V519.285H736.071V497.654Z" fill="black"/>
  <path d="M757.702 497.654H736.071V519.285H757.702V497.654Z" fill="black"/>
  <path d="M779.332 497.654H757.702V519.285H779.332V497.654Z" fill="black"/>
  <path d="M844.224 497.654H822.594V519.285H844.224V497.654Z" fill="black"/>
  <path d="M887.485 497.654H865.855V519.285H887.485V497.654Z" fill="black"/>
  <path d="M87.1537 519.285H65.5231V540.915H87.1537V519.285Z" fill="black"/>
  <path d="M108.784 519.285H87.1537V540.915H108.784V519.285Z" fill="black"/>
  <path d="M152.045 519.285H130.415V540.915H152.045V519.285Z" fill="black"/>
  <path d="M173.676 519.285H152.045V540.915H173.676V519.285Z" fill="black"/>
  <path d="M238.568 519.285H216.937V540.915H238.568V519.285Z" fill="black"/>
  <path d="M260.198 519.285H238.568V540.915H260.198V519.285Z" fill="black"/>
  <path d="M281.829 519.285H260.198V540.915H281.829V519.285Z" fill="black"/>
  <path d="M303.46 519.285H281.829V540.915H303.46V519.285Z" fill="black"/>
  <path d="M325.09 519.285H303.46V540.915H325.09V519.285Z" fill="black"/>
  <path d="M411.612 519.285H389.982V540.915H411.612V519.285Z" fill="black"/>
  <path d="M541.396 519.285H519.765V540.915H541.396V519.285Z" fill="black"/>
  <path d="M584.657 519.285H563.027V540.915H584.657V519.285Z" fill="black"/>
  <path d="M649.549 519.285H627.918V540.915H649.549V519.285Z" fill="black"/>
  <path d="M671.179 519.285H649.549V540.915H671.179V519.285Z" fill="black"/>
  <path d="M714.441 519.285H692.81V540.915H714.441V519.285Z" fill="black"/>
  <path d="M800.963 519.285H779.332V540.915H800.963V519.285Z" fill="black"/>
  <path d="M822.594 519.285H800.963V540.915H822.594V519.285Z" fill="black"/>
  <path d="M844.224 519.285H822.594V540.915H844.224V519.285Z" fill="black"/>
  <path d="M865.855 519.285H844.224V540.915H865.855V519.285Z" fill="black"/>
  <path d="M887.485 519.285H865.855V540.915H887.485V519.285Z" fill="black"/>
  <path d="M87.1537 540.915H65.5231V562.546H87.1537V540.915Z" fill="black"/>
  <path d="M130.415 540.915H108.784V562.546H130.415V540.915Z" fill="black"/>
  <path d="M216.937 540.915H195.307V562.546H216.937V540.915Z" fill="black"/>
  <path d="M281.829 540.915H260.198V562.546H281.829V540.915Z" fill="black"/>
  <path d="M303.46 540.915H281.829V562.546H303.46V540.915Z" fill="black"/>
  <path d="M325.09 540.915H303.46V562.546H325.09V540.915Z" fill="black"/>
  <path d="M368.351 540.915H346.721V562.546H368.351V540.915Z" fill="black"/>
  <path d="M411.612 540.915H389.982V562.546H411.612V540.915Z" fill="black"/>
  <path d="M454.874 540.915H433.243V562.546H454.874V540.915Z" fill="black"/>
  <path d="M476.504 540.915H454.874V562.546H476.504V540.915Z" fill="black"/>
  <path d="M584.657 540.915H563.027V562.546H584.657V540.915Z" fill="black"/>
  <path d="M671.179 540.915H649.549V562.546H671.179V540.915Z" fill="black"/>
  <path d="M714.441 540.915H692.81V562.546H714.441V540.915Z" fill="black"/>
  <path d="M757.702 540.915H736.071V562.546H757.702V540.915Z" fill="black"/>
  <path d="M800.963 540.915H779.332V562.546H800.963V540.915Z" fill="black"/>
  <path d="M822.594 540.915H800.963V562.546H822.594V540.915Z" fill="black"/>
  <path d="M844.224 540.915H822.594V562.546H844.224V540.915Z" fill="black"/>
  <path d="M87.1537 562.546H65.5231V584.177H87.1537V562.546Z" fill="black"/>
  <path d="M108.784 562.546H87.1537V584.177H108.784V562.546Z" fill="black"/>
  <path d="M152.045 562.546H130.415V584.177H152.045V562.546Z" fill="black"/>
  <path d="M173.676 562.546H152.045V584.177H173.676V562.546Z" fill="black"/>
  <path d="M216.937 562.546H195.307V584.177H216.937V562.546Z" fill="black"/>
  <path d="M303.46 562.546H281.829V584.177H303.46V562.546Z" fill="black"/>
  <path d="M325.09 562.546H303.46V584.177H325.09V562.546Z" fill="black"/>
  <path d="M346.721 562.546H325.09V584.177H346.721V562.546Z" fill="black"/>
  <path d="M368.351 562.546H346.721V584.177H368.351V562.546Z" fill="black"/>
  <path d="M389.982 562.546H368.351V584.177H389.982V562.546Z" fill="black"/>
  <path d="M411.612 562.546H389.982V584.177H411.612V562.546Z" fill="black"/>
  <path d="M433.243 562.546H411.612V584.177H433.243V562.546Z" fill="black"/>
  <path d="M454.874 562.546H433.243V584.177H454.874V562.546Z" fill="black"/>
  <path d="M476.504 562.546H454.874V584.177H476.504V562.546Z" fill="black"/>
  <path d="M519.765 562.546H498.135V584.177H519.765V562.546Z" fill="black"/>
  <path d="M584.657 562.546H563.027V584.177H584.657V562.546Z" fill="black"/>
  <path d="M649.549 562.546H627.918V584.177H649.549V562.546Z" fill="black"/>
  <path d="M822.594 562.546H800.963V584.177H822.594V562.546Z" fill="black"/>
  <path d="M22.2619 584.177H0.631348V605.807H22.2619V584.177Z" fill="black"/>
  <path d="M87.1537 584.177H65.5231V605.807H87.1537V584.177Z" fill="black"/>
  <path d="M108.784 584.177H87.1537V605.807H108.784V584.177Z" fill="black"/>
  <path d="M173.676 584.177H152.045V605.807H173.676V584.177Z" fill="black"/>
  <path d="M238.568 584.177H216.937V605.807H238.568V584.177Z" fill="black"/>
  <path d="M260.198 584.177H238.568V605.807H260.198V584.177Z" fill="black"/>
  <path d="M325.09 584.177H303.46V605.807H325.09V584.177Z" fill="black"/>
  <path d="M346.721 584.177H325.09V605.807H346.721V584.177Z" fill="black"/>
  <path d="M389.982 584.177H368.351V605.807H389.982V584.177Z" fill="black"/>
  <path d="M411.612 584.177H389.982V605.807H411.612V584.177Z" fill="black"/>
  <path d="M476.504 584.177H454.874V605.807H476.504V584.177Z" fill="black"/>
  <path d="M498.135 584.177H476.504V605.807H498.135V584.177Z" fill="black"/>
  <path d="M519.765 584.177H498.135V605.807H519.765V584.177Z" fill="black"/>
  <path d="M563.027 584.177H541.396V605.807H563.027V584.177Z" fill="black"/>
  <path d="M584.657 584.177H563.027V605.807H584.657V584.177Z" fill="black"/>
  <path d="M649.549 584.177H627.918V605.807H649.549V584.177Z" fill="black"/>
  <path d="M671.179 584.177H649.549V605.807H671.179V584.177Z" fill="black"/>
  <path d="M692.81 584.177H671.179V605.807H692.81V584.177Z" fill="black"/>
  <path d="M757.702 584.177H736.071V605.807H757.702V584.177Z" fill="black"/>
  <path d="M779.332 584.177H757.702V605.807H779.332V584.177Z" fill="black"/>
  <path d="M800.963 584.177H779.332V605.807H800.963V584.177Z" fill="black"/>
  <path d="M822.594 584.177H800.963V605.807H822.594V584.177Z" fill="black"/>
  <path d="M844.224 584.177H822.594V605.807H844.224V584.177Z" fill="black"/>
  <path d="M887.485 584.177H865.855V605.807H887.485V584.177Z" fill="black"/>
  <path d="M65.5231 605.807H43.8925V627.438H65.5231V605.807Z" fill="black"/>
  <path d="M87.1537 605.807H65.5231V627.438H87.1537V605.807Z" fill="black"/>
  <path d="M152.045 605.807H130.415V627.438H152.045V605.807Z" fill="black"/>
  <path d="M216.937 605.807H195.307V627.438H216.937V605.807Z" fill="black"/>
  <path d="M238.568 605.807H216.937V627.438H238.568V605.807Z" fill="black"/>
  <path d="M260.198 605.807H238.568V627.438H260.198V605.807Z" fill="black"/>
  <path d="M303.46 605.807H281.829V627.438H303.46V605.807Z" fill="black"/>
  <path d="M325.09 605.807H303.46V627.438H325.09V605.807Z" fill="black"/>
  <path d="M346.721 605.807H325.09V627.438H346.721V605.807Z" fill="black"/>
  <path d="M368.351 605.807H346.721V627.438H368.351V605.807Z" fill="black"/>
  <path d="M433.243 605.807H411.612V627.438H433.243V605.807Z" fill="black"/>
  <path d="M454.874 605.807H433.243V627.438H454.874V605.807Z" fill="black"/>
  <path d="M476.504 605.807H454.874V627.438H476.504V605.807Z" fill="black"/>
  <path d="M671.179 605.807H649.549V627.438H671.179V605.807Z" fill="black"/>
  <path d="M736.071 605.807H714.441V627.438H736.071V605.807Z" fill="black"/>
  <path d="M822.594 605.807H800.963V627.438H822.594V605.807Z" fill="black"/>
  <path d="M865.855 605.807H844.224V627.438H865.855V605.807Z" fill="black"/>
  <path d="M887.485 605.807H865.855V627.438H887.485V605.807Z" fill="black"/>
  <path d="M43.8925 627.438H22.2619V649.068H43.8925V627.438Z" fill="black"/>
  <path d="M65.5231 627.438H43.8925V649.068H65.5231V627.438Z" fill="black"/>
  <path d="M108.784 627.438H87.1537L87.1537 649.068H108.784V627.438Z" fill="black"/>
  <path d="M130.415 627.438H108.784V649.068H130.415V627.438Z" fill="black"/>
  <path d="M173.676 627.438H152.045V649.068H173.676V627.438Z" fill="black"/>
  <path d="M216.937 627.438H195.307V649.068H216.937V627.438Z" fill="black"/>
  <path d="M238.568 627.438H216.937V649.068H238.568V627.438Z" fill="black"/>
  <path d="M260.198 627.438H238.568V649.068H260.198V627.438Z" fill="black"/>
  <path d="M281.829 627.438H260.198V649.068H281.829V627.438Z" fill="black"/>
  <path d="M325.09 627.438H303.46V649.068H325.09V627.438Z" fill="black"/>
  <path d="M346.721 627.438H325.09V649.068H346.721V627.438Z" fill="black"/>
  <path d="M411.612 627.438H389.982V649.068H411.612V627.438Z" fill="black"/>
  <path d="M433.243 627.438H411.612V649.068H433.243V627.438Z" fill="black"/>
  <path d="M454.874 627.438H433.243V649.068H454.874V627.438Z" fill="black"/>
  <path d="M476.504 627.438H454.874V649.068H476.504V627.438Z" fill="black"/>
  <path d="M519.765 627.438H498.135V649.068H519.765V627.438Z" fill="black"/>
  <path d="M541.396 627.438H519.765V649.068H541.396V627.438Z" fill="black"/>
  <path d="M606.288 627.438H584.657V649.068H606.288V627.438Z" fill="black"/>
  <path d="M627.918 627.438H606.288V649.068H627.918V627.438Z" fill="black"/>
  <path d="M671.179 627.438H649.549V649.068H671.179V627.438Z" fill="black"/>
  <path d="M692.81 627.438H671.179V649.068H692.81V627.438Z" fill="black"/>
  <path d="M714.441 627.438H692.81V649.068H714.441V627.438Z" fill="black"/>
  <path d="M757.702 627.438H736.071V649.068H757.702V627.438Z" fill="black"/>
  <path d="M779.332 627.438H757.702V649.068H779.332V627.438Z" fill="black"/>
  <path d="M800.963 627.438H779.332V649.068H800.963V627.438Z" fill="black"/>
  <path d="M844.224 627.438H822.594V649.068H844.224V627.438Z" fill="black"/>
  <path d="M865.855 627.438H844.224V649.068H865.855V627.438Z" fill="black"/>
  <path d="M887.485 627.438H865.855V649.068H887.485V627.438Z" fill="black"/>
  <path d="M43.8925 649.068H22.2619V670.699H43.8925V649.068Z" fill="black"/>
  <path d="M65.5231 649.068H43.8925V670.699H65.5231V649.068Z" fill="black"/>
  <path d="M87.1537 649.068H65.5231V670.699H87.1537L87.1537 649.068Z" fill="black"/>
  <path d="M108.784 649.068H87.1537L87.1537 670.699H108.784V649.068Z" fill="black"/>
  <path d="M130.415 649.068H108.784V670.699H130.415V649.068Z" fill="black"/>
  <path d="M152.045 649.068H130.415V670.699H152.045V649.068Z" fill="black"/>
  <path d="M216.937 649.068H195.307V670.699H216.937V649.068Z" fill="black"/>
  <path d="M260.198 649.068H238.568V670.699H260.198V649.068Z" fill="black"/>
  <path d="M303.46 649.068H281.829V670.699H303.46V649.068Z" fill="black"/>
  <path d="M325.09 649.068H303.46V670.699H325.09V649.068Z" fill="black"/>
  <path d="M346.721 649.068H325.09V670.699H346.721V649.068Z" fill="black"/>
  <path d="M411.612 649.068H389.982V670.699H411.612V649.068Z" fill="black"/>
  <path d="M433.243 649.068H411.612V670.699H433.243V649.068Z" fill="black"/>
  <path d="M476.504 649.068H454.874V670.699H476.504V649.068Z" fill="black"/>
  <path d="M498.135 649.068H476.504V670.699H498.135V649.068Z" fill="black"/>
  <path d="M563.027 649.068H541.396V670.699H563.027V649.068Z" fill="black"/>
  <path d="M606.288 649.068H584.657V670.699H606.288V649.068Z" fill="black"/>
  <path d="M649.549 649.068H627.918V670.699H649.549V649.068Z" fill="black"/>
  <path d="M714.441 649.068H692.81V670.699H714.441V649.068Z" fill="black"/>
  <path d="M736.071 649.068H714.441V670.699H736.071V649.068Z" fill="black"/>
  <path d="M779.332 649.068H757.702V670.699H779.332V649.068Z" fill="black"/>
  <path d="M844.224 649.068H822.594V670.699H844.224V649.068Z" fill="black"/>
  <path d="M865.855 649.068H844.224V670.699H865.855V649.068Z" fill="black"/>
  <path d="M43.8925 670.699H22.2619V692.33H43.8925V670.699Z" fill="black"/>
  <path d="M65.5231 670.699H43.8925V692.33H65.5231V670.699Z" fill="black"/>
  <path d="M130.415 670.699H108.784V692.33H130.415V670.699Z" fill="black"/>
  <path d="M195.307 670.699H173.676V692.33H195.307V670.699Z" fill="black"/>
  <path d="M216.937 670.699H195.307V692.33H216.937V670.699Z" fill="black"/>
  <path d="M281.829 670.699H260.198V692.33H281.829V670.699Z" fill="black"/>
  <path d="M303.46 670.699H281.829V692.33H303.46V670.699Z" fill="black"/>
  <path d="M346.721 670.699H325.09V692.33H346.721V670.699Z" fill="black"/>
  <path d="M433.243 670.699H411.612V692.33H433.243V670.699Z" fill="black"/>
  <path d="M454.874 670.699H433.243V692.33H454.874V670.699Z" fill="black"/>
  <path d="M476.504 670.699H454.874V692.33H476.504V670.699Z" fill="black"/>
  <path d="M519.765 670.699H498.135V692.33H519.765V670.699Z" fill="black"/>
  <path d="M606.288 670.699H584.657V692.33H606.288V670.699Z" fill="black"/>
  <path d="M649.549 670.699H627.918V692.33H649.549V670.699Z" fill="black"/>
  <path d="M692.81 670.699H671.179V692.33H692.81V670.699Z" fill="black"/>
  <path d="M714.441 670.699H692.81V692.33H714.441V670.699Z" fill="black"/>
  <path d="M779.332 670.699H757.702V692.33H779.332V670.699Z" fill="black"/>
  <path d="M800.963 670.699H779.332V692.33H800.963V670.699Z" fill="black"/>
  <path d="M822.594 670.699H800.963V692.33H822.594V670.699Z" fill="black"/>
  <path d="M887.485 670.699H865.855V692.33H887.485V670.699Z" fill="black"/>
  <path d="M22.2619 692.33H0.631348V713.96H22.2619V692.33Z" fill="black"/>
  <path d="M65.5231 692.33H43.8925V713.96H65.5231V692.33Z" fill="black"/>
  <path d="M130.415 692.33H108.784V713.96H130.415V692.33Z" fill="black"/>
  <path d="M152.045 692.33H130.415V713.96H152.045V692.33Z" fill="black"/>
  <path d="M173.676 692.33H152.045V713.96H173.676V692.33Z" fill="black"/>
  <path d="M195.307 692.33H173.676V713.96H195.307V692.33Z" fill="black"/>
  <path d="M216.937 692.33H195.307V713.96H216.937V692.33Z" fill="black"/>
  <path d="M389.982 692.33H368.351V713.96H389.982V692.33Z" fill="black"/>
  <path d="M411.612 692.33H389.982V713.96H411.612V692.33Z" fill="black"/>
  <path d="M433.243 692.33H411.612V713.96H433.243V692.33Z" fill="black"/>
  <path d="M584.657 692.33H563.027V713.96H584.657V692.33Z" fill="black"/>
  <path d="M606.288 692.33H584.657V713.96H606.288V692.33Z" fill="black"/>
  <path d="M627.918 692.33H606.288V713.96H627.918V692.33Z" fill="black"/>
  <path d="M649.549 692.33H627.918V713.96H649.549V692.33Z" fill="black"/>
  <path d="M671.179 692.33H649.549V713.96H671.179V692.33Z" fill="black"/>
  <path d="M714.441 692.33H692.81V713.96H714.441V692.33Z" fill="black"/>
  <path d="M736.071 692.33H714.441V713.96H736.071V692.33Z" fill="black"/>
  <path d="M757.702 692.33H736.071V713.96H757.702V692.33Z" fill="black"/>
  <path d="M779.332 692.33H757.702V713.96H779.332V692.33Z" fill="black"/>
  <path d="M800.963 692.33H779.332V713.96H800.963V692.33Z" fill="black"/>
  <path d="M844.224 692.33H822.594V713.96H844.224V692.33Z" fill="black"/>
  <path d="M887.485 692.33H865.855V713.96H887.485V692.33Z" fill="black"/>
  <path d="M195.307 713.96H173.676V735.591H195.307V713.96Z" fill="black"/>
  <path d="M216.937 713.96H195.307V735.591H216.937V713.96Z" fill="black"/>
  <path d="M260.198 713.96H238.568V735.591H260.198V713.96Z" fill="black"/>
  <path d="M281.829 713.96H260.198V735.591H281.829V713.96Z" fill="black"/>
  <path d="M303.46 713.96H281.829V735.591H303.46V713.96Z" fill="black"/>
  <path d="M325.09 713.96H303.46V735.591H325.09V713.96Z" fill="black"/>
  <path d="M368.351 713.96H346.721V735.591H368.351V713.96Z" fill="black"/>
  <path d="M389.982 713.96H368.351V735.591H389.982V713.96Z" fill="black"/>
  <path d="M476.504 713.96H454.874V735.591H476.504V713.96Z" fill="black"/>
  <path d="M519.765 713.96H498.135V735.591H519.765V713.96Z" fill="black"/>
  <path d="M606.288 713.96H584.657V735.591H606.288V713.96Z" fill="black"/>
  <path d="M627.918 713.96H606.288V735.591H627.918V713.96Z" fill="black"/>
  <path d="M649.549 713.96H627.918V735.591H649.549V713.96Z" fill="black"/>
  <path d="M692.81 713.96H671.179V735.591H692.81V713.96Z" fill="black"/>
  <path d="M714.441 713.96H692.81V735.591H714.441V713.96Z" fill="black"/>
  <path d="M800.963 713.96H779.332V735.591H800.963V713.96Z" fill="black"/>
  <path d="M822.594 713.96H800.963V735.591H822.594V713.96Z" fill="black"/>
  <path d="M844.224 713.96H822.594V735.591H844.224V713.96Z" fill="black"/>
  <path d="M22.2619 735.591H0.631348V757.221H22.2619V735.591Z" fill="black"/>
  <path d="M43.8925 735.591H22.2619V757.221H43.8925V735.591Z" fill="black"/>
  <path d="M65.5231 735.591H43.8925V757.221H65.5231V735.591Z" fill="black"/>
  <path d="M87.1537 735.591H65.5231V757.221H87.1537V735.591Z" fill="black"/>
  <path d="M108.784 735.591H87.1537V757.221H108.784V735.591Z" fill="black"/>
  <path d="M130.415 735.591H108.784V757.221H130.415V735.591Z" fill="black"/>
  <path d="M152.045 735.591H130.415V757.221H152.045V735.591Z" fill="black"/>
  <path d="M195.307 735.591H173.676V757.221H195.307V735.591Z" fill="black"/>
  <path d="M216.937 735.591H195.307V757.221H216.937V735.591Z" fill="black"/>
  <path d="M260.198 735.591H238.568V757.221H260.198V735.591Z" fill="black"/>
  <path d="M303.46 735.591H281.829V757.221H303.46V735.591Z" fill="black"/>
  <path d="M325.09 735.591H303.46V757.221H325.09V735.591Z" fill="black"/>
  <path d="M389.982 735.591H368.351V757.221H389.982V735.591Z" fill="black"/>
  <path d="M411.612 735.591H389.982V757.221H411.612V735.591Z" fill="black"/>
  <path d="M433.243 735.591H411.612V757.221H433.243V735.591Z" fill="black"/>
  <path d="M476.504 735.591H454.874V757.221H476.504V735.591Z" fill="black"/>
  <path d="M498.135 735.591H476.504V757.221H498.135V735.591Z" fill="black"/>
  <path d="M584.657 735.591H563.027V757.221H584.657V735.591Z" fill="black"/>
  <path d="M606.288 735.591H584.657V757.221H606.288V735.591Z" fill="black"/>
  <path d="M649.549 735.591H627.918V757.221H649.549V735.591Z" fill="black"/>
  <path d="M671.179 735.591H649.549V757.221H671.179V735.591Z" fill="black"/>
  <path d="M692.81 735.591H671.179V757.221H692.81V735.591Z" fill="black"/>
  <path d="M714.441 735.591H692.81V757.221H714.441V735.591Z" fill="black"/>
  <path d="M757.702 735.591H736.071V757.221H757.702V735.591Z" fill="black"/>
  <path d="M800.963 735.591H779.332V757.221H800.963V735.591Z" fill="black"/>
  <path d="M865.855 735.591H844.224V757.221H865.855V735.591Z" fill="black"/>
  <path d="M887.485 735.591H865.855V757.221H887.485V735.591Z" fill="black"/>
  <path d="M22.2619 757.221H0.631348V778.852H22.2619V757.221Z" fill="black"/>
  <path d="M152.045 757.221H130.415V778.852H152.045V757.221Z" fill="black"/>
  <path d="M195.307 757.221H173.676V778.852H195.307V757.221Z" fill="black"/>
  <path d="M281.829 757.221H260.198V778.852H281.829V757.221Z" fill="black"/>
  <path d="M325.09 757.221H303.46V778.852H325.09V757.221Z" fill="black"/>
  <path d="M368.351 757.221H346.721V778.852H368.351V757.221Z" fill="black"/>
  <path d="M389.982 757.221H368.351V778.852H389.982V757.221Z" fill="black"/>
  <path d="M411.612 757.221H389.982V778.852H411.612V757.221Z" fill="black"/>
  <path d="M433.243 757.221H411.612V778.852H433.243V757.221Z" fill="black"/>
  <path d="M476.504 757.221H454.874V778.852H476.504V757.221Z" fill="black"/>
  <path d="M541.396 757.221H519.765V778.852H541.396V757.221Z" fill="black"/>
  <path d="M584.657 757.221H563.027V778.852H584.657V757.221Z" fill="black"/>
  <path d="M627.918 757.221H606.288V778.852H627.918V757.221Z" fill="black"/>
  <path d="M671.179 757.221H649.549V778.852H671.179V757.221Z" fill="black"/>
  <path d="M714.441 757.221H692.81V778.852H714.441V757.221Z" fill="black"/>
  <path d="M800.963 757.221H779.332V778.852H800.963V757.221Z" fill="black"/>
  <path d="M844.224 757.221H822.594V778.852H844.224V757.221Z" fill="black"/>
  <path d="M22.2619 778.852H0.631348V800.482H22.2619V778.852Z" fill="black"/>
  <path d="M65.5231 778.852H43.8925V800.482H65.5231V778.852Z" fill="black"/>
  <path d="M87.1537 778.852H65.5231V800.482H87.1537V778.852Z" fill="black"/>
  <path d="M108.784 778.852H87.1537V800.482H108.784V778.852Z" fill="black"/>
  <path d="M152.045 778.852H130.415V800.482H152.045V778.852Z" fill="black"/>
  <path d="M195.307 778.852H173.676V800.482H195.307V778.852Z" fill="black"/>
  <path d="M216.937 778.852H195.307V800.482H216.937V778.852Z" fill="black"/>
  <path d="M303.46 778.852H281.829V800.482H303.46V778.852Z" fill="black"/>
  <path d="M368.351 778.852H346.721V800.482H368.351V778.852Z" fill="black"/>
  <path d="M389.982 778.852H368.351V800.482H389.982V778.852Z" fill="black"/>
  <path d="M476.504 778.852H454.874V800.482H476.504V778.852Z" fill="black"/>
  <path d="M563.027 778.852H541.396V800.482H563.027V778.852Z" fill="black"/>
  <path d="M649.549 778.852H627.918V800.482H649.549V778.852Z" fill="black"/>
  <path d="M671.179 778.852H649.549V800.482H671.179V778.852Z" fill="black"/>
  <path d="M714.441 778.852H692.81V800.482H714.441V778.852Z" fill="black"/>
  <path d="M736.071 778.852H714.441V800.482H736.071V778.852Z" fill="black"/>
  <path d="M757.702 778.852H736.071V800.482H757.702V778.852Z" fill="black"/>
  <path d="M779.332 778.852H757.702V800.482H779.332V778.852Z" fill="black"/>
  <path d="M800.963 778.852H779.332V800.482H800.963V778.852Z" fill="black"/>
  <path d="M865.855 778.852H844.224V800.482H865.855V778.852Z" fill="black"/>
  <path d="M887.485 778.852H865.855V800.482H887.485V778.852Z" fill="black"/>
  <path d="M22.2619 800.482H0.631348V822.113H22.2619V800.482Z" fill="black"/>
  <path d="M65.5231 800.482H43.8925V822.113H65.5231V800.482Z" fill="black"/>
  <path d="M87.1537 800.482H65.5231V822.113H87.1537V800.482Z" fill="black"/>
  <path d="M108.784 800.482H87.1537V822.113H108.784V800.482Z" fill="black"/>
  <path d="M152.045 800.482H130.415V822.113H152.045V800.482Z" fill="black"/>
  <path d="M195.307 800.482H173.676V822.113H195.307V800.482Z" fill="black"/>
  <path d="M216.937 800.482H195.307V822.113H216.937V800.482Z" fill="black"/>
  <path d="M260.198 800.482H238.568V822.113H260.198V800.482Z" fill="black"/>
  <path d="M303.46 800.482H281.829V822.113H303.46V800.482Z" fill="black"/>
  <path d="M346.721 800.482H325.09V822.113H346.721V800.482Z" fill="black"/>
  <path d="M368.351 800.482H346.721V822.113H368.351V800.482Z" fill="black"/>
  <path d="M433.243 800.482H411.612V822.113H433.243V800.482Z" fill="black"/>
  <path d="M454.874 800.482H433.243V822.113H454.874V800.482Z" fill="black"/>
  <path d="M476.504 800.482H454.874V822.113H476.504V800.482Z" fill="black"/>
  <path d="M498.135 800.482H476.504V822.113H498.135V800.482Z" fill="black"/>
  <path d="M519.765 800.482H498.135V822.113H519.765V800.482Z" fill="black"/>
  <path d="M541.396 800.482H519.765V822.113H541.396V800.482Z" fill="black"/>
  <path d="M584.657 800.482H563.027V822.113H584.657V800.482Z" fill="black"/>
  <path d="M606.288 800.482H584.657V822.113H606.288V800.482Z" fill="black"/>
  <path d="M692.81 800.482H671.179V822.113H692.81V800.482Z" fill="black"/>
  <path d="M714.441 800.482H692.81V822.113H714.441V800.482Z" fill="black"/>
  <path d="M865.855 800.482H844.224V822.113H865.855V800.482Z" fill="black"/>
  <path d="M22.2619 822.113H0.631348V843.744H22.2619V822.113Z" fill="black"/>
  <path d="M65.5231 822.113H43.8925V843.744H65.5231V822.113Z" fill="black"/>
  <path d="M87.1537 822.113H65.5231V843.744H87.1537V822.113Z" fill="black"/>
  <path d="M108.784 822.113H87.1537V843.744H108.784V822.113Z" fill="black"/>
  <path d="M152.045 822.113H130.415V843.744H152.045V822.113Z" fill="black"/>
  <path d="M216.937 822.113H195.307V843.744H216.937V822.113Z" fill="black"/>
  <path d="M238.568 822.113H216.937V843.744H238.568V822.113Z" fill="black"/>
  <path d="M303.46 822.113H281.829V843.744H303.46V822.113Z" fill="black"/>
  <path d="M325.09 822.113H303.46V843.744H325.09V822.113Z" fill="black"/>
  <path d="M368.351 822.113H346.721V843.744H368.351V822.113Z" fill="black"/>
  <path d="M389.982 822.113H368.351V843.744H389.982V822.113Z" fill="black"/>
  <path d="M454.874 822.113H433.243V843.744H454.874V822.113Z" fill="black"/>
  <path d="M476.504 822.113H454.874V843.744H476.504V822.113Z" fill="black"/>
  <path d="M563.027 822.113H541.396V843.744H563.027V822.113Z" fill="black"/>
  <path d="M649.549 822.113H627.918V843.744H649.549V822.113Z" fill="black"/>
  <path d="M714.441 822.113H692.81V843.744H714.441V822.113Z" fill="black"/>
  <path d="M736.071 822.113H714.441V843.744H736.071V822.113Z" fill="black"/>
  <path d="M757.702 822.113H736.071V843.744H757.702V822.113Z" fill="black"/>
  <path d="M822.594 822.113H800.963V843.744H822.594V822.113Z" fill="black"/>
  <path d="M22.2619 843.744H0.631348V865.374H22.2619V843.744Z" fill="black"/>
  <path d="M152.045 843.744H130.415V865.374H152.045V843.744Z" fill="black"/>
  <path d="M260.198 843.744H238.568V865.374H260.198V843.744Z" fill="black"/>
  <path d="M346.721 843.744H325.09V865.374H346.721V843.744Z" fill="black"/>
  <path d="M389.982 843.744H368.351V865.374H389.982V843.744Z" fill="black"/>
  <path d="M433.243 843.744H411.612V865.374H433.243V843.744Z" fill="black"/>
  <path d="M541.396 843.744H519.765V865.374H541.396V843.744Z" fill="black"/>
  <path d="M584.657 843.744H563.027V865.374H584.657V843.744Z" fill="black"/>
  <path d="M606.288 843.744H584.657V865.374H606.288V843.744Z" fill="black"/>
  <path d="M649.549 843.744H627.918V865.374H649.549V843.744Z" fill="black"/>
  <path d="M692.81 843.744H671.179V865.374H692.81V843.744Z" fill="black"/>
  <path d="M757.702 843.744H736.071V865.374H757.702V843.744Z" fill="black"/>
  <path d="M800.963 843.744H779.332V865.374H800.963V843.744Z" fill="black"/>
  <path d="M865.855 843.744H844.224V865.374H865.855V843.744Z" fill="black"/>
  <path d="M887.485 843.744H865.855V865.374H887.485V843.744Z" fill="black"/>
  <path d="M22.2619 865.374H0.631348V887.005H22.2619V865.374Z" fill="black"/>
  <path d="M43.8925 865.374H22.2619V887.005H43.8925V865.374Z" fill="black"/>
  <path d="M65.5231 865.374H43.8925V887.005H65.5231V865.374Z" fill="black"/>
  <path d="M87.1537 865.374H65.5231V887.005H87.1537V865.374Z" fill="black"/>
  <path d="M108.784 865.374H87.1537V887.005H108.784V865.374Z" fill="black"/>
  <path d="M130.415 865.374H108.784V887.005H130.415V865.374Z" fill="black"/>
  <path d="M152.045 865.374H130.415V887.005H152.045V865.374Z" fill="black"/>
  <path d="M195.307 865.374H173.676V887.005H195.307V865.374Z" fill="black"/>
  <path d="M238.568 865.374H216.937V887.005H238.568V865.374Z" fill="black"/>
  <path d="M260.198 865.374H238.568V887.005H260.198V865.374Z" fill="black"/>
  <path d="M325.09 865.374H303.46V887.005H325.09V865.374Z" fill="black"/>
  <path d="M411.612 865.374H389.982V887.005H411.612V865.374Z" fill="black"/>
  <path d="M454.874 865.374H433.243V887.005H454.874V865.374Z" fill="black"/>
  <path d="M498.135 865.374H476.504V887.005H498.135V865.374Z" fill="black"/>
  <path d="M519.765 865.374H498.135V887.005H519.765V865.374Z" fill="black"/>
  <path d="M563.027 865.374H541.396V887.005H563.027V865.374Z" fill="black"/>
  <path d="M584.657 865.374H563.027V887.005H584.657V865.374Z" fill="black"/>
  <path d="M671.179 865.374H649.549V887.005H671.179V865.374Z" fill="black"/>
  <path d="M714.441 865.374H692.81V887.005H714.441V865.374Z" fill="black"/>
  <path d="M757.702 865.374H736.071V887.005H757.702V865.374Z" fill="black"/>
  <path d="M800.963 865.374H779.332V887.005H800.963V865.374Z" fill="black"/>
  <path d="M822.594 865.374H800.963V887.005H822.594V865.374Z" fill="black"/>
  <path d="M844.224 865.374H822.594V887.005H844.224V865.374Z" fill="black"/>
  <path d="M865.855 865.374H844.224V887.005H865.855V865.374Z" fill="black"/>
</svg>